# xmcd
#
# Track frame offsets:
# 150
# 15262
# 32378
# 44884
# 63301
# 80758
#
# Disc length: 1248 seconds
#
# Revision: 0
# Processed by: cddbd v1.4PL0 Copyright (c) Steve Scherf et al.
# Submitted via: Audion 3.0.2 (http://www.panic.com/audion/)
#
DISCID=4304de06
DTITLE=The Swains - The Swains EP
DYEAR=1900
DGENRE=
TTITLE0=Blue Are The Days
TTITLE1=Senorita Weeps
TTITLE2=Best One You Left Behind
TTITLE3=Save All Your Kisses
TTITLE4=Can't Let Go
TTITLE5=Waitin' All Night Long
EXTD=
EXTT0=
EXTT1=
EXTT2=
EXTT3=
EXTT4=
EXTT5=
PLAYORDER=
